<?xml version="1.0" standalone="no"?>
<!DOCTYPE svg PUBLIC "-//W3C//DTD SVG 20010904//EN"
 "http://www.w3.org/TR/2001/REC-SVG-20010904/DTD/svg10.dtd">
<svg version="1.0" xmlns="http://www.w3.org/2000/svg"
 width="700.000000pt" height="700.000000pt" viewBox="0 0 700.000000 700.000000"
 preserveAspectRatio="xMidYMid meet">
<metadata>
Created by potrace 1.14, written by Peter Selinger 2001-2017
</metadata>
<g transform="translate(0.000000,700.000000) scale(0.100000,-0.100000)"
fill="#000000" stroke="none">
<path d="M3215 6854 c-839 -85 -1563 -430 -2129 -1014 -538 -556 -858 -1248
-936 -2029 -13 -133 -13 -489 0 -622 81 -811 429 -1538 1004 -2097 558 -542
1273 -872 2046 -942 147 -13 452 -13 600 0 663 60 1282 311 1815 736 141 113
386 358 499 499 425 533 676 1152 736 1815 13 148 13 453 0 600 -121 1329
-1012 2460 -2275 2887 -205 69 -375 110 -605 145 -107 16 -195 21 -425 23
-159 1 -308 1 -330 -1z m400 -1425 c154 -74 209 -267 114 -399 -18 -24 -29
-50 -26 -60 3 -10 45 -88 95 -172 49 -84 266 -459 482 -833 216 -374 404 -700
419 -725 15 -25 41 -70 58 -100 16 -30 49 -89 73 -131 l44 -76 76 0 c94 1 152
-24 209 -89 188 -214 -20 -524 -298 -445 -54 15 -143 100 -160 154 l-13 37
-1188 0 -1188 0 -13 -37 c-18 -57 -104 -136 -164 -154 -75 -21 -145 -16 -210
15 -165 81 -206 291 -84 429 56 65 116 90 210 90 l77 0 40 71 c22 39 52 94 67
121 15 28 53 93 85 145 31 52 222 383 425 735 202 352 408 709 458 793 49 84
91 162 94 172 3 10 -8 36 -26 60 -157 218 100 516 344 399z"/>
<path d="M3392 4858 c-15 -27 -49 -86 -75 -131 -81 -137 -914 -1580 -948
-1643 -18 -32 -45 -79 -61 -104 -15 -25 -37 -62 -48 -83 l-21 -37 26 -34 c14
-18 30 -47 36 -64 l11 -32 1188 0 1188 0 11 32 c6 17 23 46 37 65 l26 34 -71
118 c-39 66 -71 121 -71 124 0 2 -205 359 -456 793 -251 434 -485 839 -519
899 l-62 110 -82 2 -82 1 -27 -50z m223 -960 c102 -25 215 -121 260 -220 115
-253 -40 -545 -312 -587 -274 -43 -515 199 -472 472 14 87 49 158 110 222 107
113 254 153 414 113z"/>
</g>
</svg>
