<?xml version="1.0" standalone="no"?>
<!DOCTYPE svg PUBLIC "-//W3C//DTD SVG 20010904//EN"
 "http://www.w3.org/TR/2001/REC-SVG-20010904/DTD/svg10.dtd">
<svg version="1.0" xmlns="http://www.w3.org/2000/svg"
 width="700.000000pt" height="700.000000pt" viewBox="0 0 700.000000 700.000000"
 preserveAspectRatio="xMidYMid meet">
<metadata>
Created by potrace 1.14, written by Peter Selinger 2001-2017
</metadata>
<g transform="translate(0.000000,700.000000) scale(0.100000,-0.100000)"
fill="#000000" stroke="none">
<path d="M3215 6854 c-841 -86 -1563 -430 -2129 -1014 -542 -560 -864 -1262
-937 -2043 -17 -188 -7 -592 21 -772 81 -536 275 -1027 573 -1450 515 -731
1298 -1233 2157 -1383 240 -42 300 -47 600 -47 322 0 429 10 692 65 1289 271
2315 1288 2592 2571 59 273 70 381 70 714 0 324 -7 418 -55 659 -234 1184
-1103 2168 -2244 2539 -374 122 -597 157 -1010 162 -159 1 -308 1 -330 -1z
m411 -1470 c68 -42 107 -107 112 -189 4 -63 -10 -108 -54 -176 l-17 -27 498
-863 c275 -475 547 -947 605 -1048 l107 -184 65 2 c77 3 127 -15 176 -62 54
-52 76 -103 76 -177 0 -139 -102 -240 -242 -240 -103 0 -205 73 -227 163 l-7
27 -1217 0 -1216 0 -18 -44 c-34 -83 -102 -134 -193 -143 -103 -11 -199 40
-246 131 -30 56 -30 155 -1 211 49 93 126 138 231 134 l66 -2 92 159 c181 315
947 1642 1019 1764 106 182 102 167 64 229 -78 124 -36 280 93 345 74 38 163
34 234 -10z"/>
<path d="M3347 4815 c-474 -821 -772 -1338 -934 -1620 -108 -187 -197 -343
-199 -346 -2 -3 10 -24 26 -45 16 -22 32 -52 35 -67 l7 -27 1215 0 1214 0 15
37 c9 20 26 51 40 68 l23 31 -78 134 c-43 74 -285 493 -537 930 -252 437 -489
849 -527 915 l-70 120 -77 0 -77 0 -76 -130z m238 -980 c128 -33 219 -127 251
-258 48 -195 -78 -381 -284 -419 -122 -23 -268 40 -337 145 -34 51 -65 146
-65 197 0 51 31 146 65 197 42 63 118 116 195 137 72 19 103 19 175 1z"/>
</g>
</svg>
